<?xml version="1.0" encoding="UTF-8"?>
<svg xmlns="http://www.w3.org/2000/svg" xmlns:xlink="http://www.w3.org/1999/xlink" width="96pt" height="37pt" viewBox="0 0 96 37" version="1.1">
<g id="surface1">
<path style="fill-rule:nonzero;fill:rgb(0%,0%,0%);fill-opacity:1;stroke-width:0.3985;stroke-linecap:butt;stroke-linejoin:miter;stroke:rgb(0%,0%,0%);stroke-opacity:1;stroke-miterlimit:10;" d="M 1.418031 -0.00175 C 1.418031 0.783406 0.781312 1.416219 0.0000625 1.416219 C -0.781188 1.416219 -1.417906 0.783406 -1.417906 -0.00175 C -1.417906 -0.783 -0.781188 -1.415812 0.0000625 -1.415812 C 0.781312 -1.415812 1.418031 -0.783 1.418031 -0.00175 Z M 1.418031 -0.00175 " transform="matrix(1,0,0,-1,34.664,2.217)"/>
<path style="fill-rule:nonzero;fill:rgb(0%,0%,0%);fill-opacity:1;stroke-width:0.3985;stroke-linecap:butt;stroke-linejoin:miter;stroke:rgb(0%,0%,0%);stroke-opacity:1;stroke-miterlimit:10;" d="M 32.996156 -0.00175 C 32.996156 0.783406 32.363344 1.416219 31.578187 1.416219 C 30.796937 1.416219 30.164125 0.783406 30.164125 -0.00175 C 30.164125 -0.783 30.796937 -1.415812 31.578187 -1.415812 C 32.363344 -1.415812 32.996156 -0.783 32.996156 -0.00175 Z M 32.996156 -0.00175 " transform="matrix(1,0,0,-1,34.664,2.217)"/>
<path style="fill-rule:nonzero;fill:rgb(0%,0%,0%);fill-opacity:1;stroke-width:0.3985;stroke-linecap:butt;stroke-linejoin:miter;stroke:rgb(0%,0%,0%);stroke-opacity:1;stroke-miterlimit:10;" d="M -30.933531 -32.353313 C -30.933531 -31.568156 -31.57025 -30.935344 -32.3515 -30.935344 C -33.136656 -30.935344 -33.769469 -31.568156 -33.769469 -32.353313 C -33.769469 -33.134563 -33.136656 -33.771281 -32.3515 -33.771281 C -31.57025 -33.771281 -30.933531 -33.134563 -30.933531 -32.353313 Z M -30.933531 -32.353313 " transform="matrix(1,0,0,-1,34.664,2.217)"/>
<path style="fill-rule:nonzero;fill:rgb(0%,0%,0%);fill-opacity:1;stroke-width:0.3985;stroke-linecap:butt;stroke-linejoin:miter;stroke:rgb(0%,0%,0%);stroke-opacity:1;stroke-miterlimit:10;" d="M 14.816469 -32.353313 C 14.816469 -31.568156 14.183656 -30.935344 13.402406 -30.935344 C 12.61725 -30.935344 11.984437 -31.568156 11.984437 -32.353313 C 11.984437 -33.134563 12.61725 -33.771281 13.402406 -33.771281 C 14.183656 -33.771281 14.816469 -33.134563 14.816469 -32.353313 Z M 14.816469 -32.353313 " transform="matrix(1,0,0,-1,34.664,2.217)"/>
<path style="fill-rule:nonzero;fill:rgb(0%,0%,0%);fill-opacity:1;stroke-width:0.3985;stroke-linecap:butt;stroke-linejoin:miter;stroke:rgb(0%,0%,0%);stroke-opacity:1;stroke-miterlimit:10;" d="M 60.570375 -32.353313 C 60.570375 -31.568156 59.937562 -30.935344 59.156312 -30.935344 C 58.371156 -30.935344 57.738344 -31.568156 57.738344 -32.353313 C 57.738344 -33.134563 58.371156 -33.771281 59.156312 -33.771281 C 59.937562 -33.771281 60.570375 -33.134563 60.570375 -32.353313 Z M 60.570375 -32.353313 " transform="matrix(1,0,0,-1,34.664,2.217)"/>
<path style="fill:none;stroke-width:0.79701;stroke-linecap:butt;stroke-linejoin:miter;stroke:rgb(0%,0%,0%);stroke-opacity:1;stroke-miterlimit:10;" d="M -1.144469 -1.142375 L -31.210875 -31.208781 " transform="matrix(1,0,0,-1,34.664,2.217)"/>
<path style="fill:none;stroke-width:0.79701;stroke-linecap:butt;stroke-linejoin:miter;stroke:rgb(0%,0%,0%);stroke-opacity:1;stroke-miterlimit:10;" d="M 0.61725 -1.493937 L 12.781312 -30.857219 " transform="matrix(1,0,0,-1,34.664,2.217)"/>
<path style="fill:none;stroke-width:0.79701;stroke-linecap:butt;stroke-linejoin:miter;stroke:rgb(0%,0%,0%);stroke-opacity:1;stroke-miterlimit:10;" d="M 1.418031 -0.775187 L 57.734437 -31.575969 " transform="matrix(1,0,0,-1,34.664,2.217)"/>
<path style="fill:none;stroke-width:0.79701;stroke-linecap:butt;stroke-linejoin:miter;stroke:rgb(0%,0%,0%);stroke-opacity:1;stroke-miterlimit:10;" d="M 30.136781 -0.728312 L -30.910094 -31.622844 " transform="matrix(1,0,0,-1,34.664,2.217)"/>
<path style="fill:none;stroke-width:0.79701;stroke-linecap:butt;stroke-linejoin:miter;stroke:rgb(0%,0%,0%);stroke-opacity:1;stroke-miterlimit:10;" d="M 30.789125 -1.408 L 14.191469 -30.943156 " transform="matrix(1,0,0,-1,34.664,2.217)"/>
<path style="fill:none;stroke-width:0.79701;stroke-linecap:butt;stroke-linejoin:miter;stroke:rgb(0%,0%,0%);stroke-opacity:1;stroke-miterlimit:10;" d="M 32.628969 -1.232219 L 58.105531 -31.122844 " transform="matrix(1,0,0,-1,34.664,2.217)"/>
</g>
</svg>
