<?xml version="1.0" encoding="UTF-8"?>
<svg xmlns="http://www.w3.org/2000/svg" xmlns:xlink="http://www.w3.org/1999/xlink" width="129pt" height="113pt" viewBox="0 0 129 113" version="1.1">
<g id="surface1">
<path style="fill-rule:nonzero;fill:rgb(0%,0%,0%);fill-opacity:1;stroke-width:0.3985;stroke-linecap:butt;stroke-linejoin:miter;stroke:rgb(0%,0%,0%);stroke-opacity:1;stroke-miterlimit:10;" d="M 1.41725 -0.00175 C 1.41725 0.783406 0.784437 1.416219 -0.00071875 1.416219 C -0.781969 1.416219 -1.418688 0.783406 -1.418688 -0.00175 C -1.418688 -0.783 -0.781969 -1.415812 -0.00071875 -1.415812 C 0.784437 -1.415812 1.41725 -0.783 1.41725 -0.00175 Z M 1.41725 -0.00175 " transform="matrix(1,0,0,-1,65.864,2.217)"/>
<path style="fill-rule:nonzero;fill:rgb(0%,0%,0%);fill-opacity:1;stroke-width:0.3985;stroke-linecap:butt;stroke-linejoin:miter;stroke:rgb(0%,0%,0%);stroke-opacity:1;stroke-miterlimit:10;" d="M -32.0515 -39.138469 C -32.0515 -38.353313 -32.684313 -37.7205 -33.469469 -37.7205 C -34.250719 -37.7205 -34.883531 -38.353313 -34.883531 -39.138469 C -34.883531 -39.919719 -34.250719 -40.556438 -33.469469 -40.556438 C -32.684313 -40.556438 -32.0515 -39.919719 -32.0515 -39.138469 Z M -32.0515 -39.138469 " transform="matrix(1,0,0,-1,65.864,2.217)"/>
<path style="fill-rule:nonzero;fill:rgb(0%,0%,0%);fill-opacity:1;stroke-width:0.3985;stroke-linecap:butt;stroke-linejoin:miter;stroke:rgb(0%,0%,0%);stroke-opacity:1;stroke-miterlimit:10;" d="M 34.886 -39.138469 C 34.886 -38.353313 34.249281 -37.7205 33.468031 -37.7205 C 32.686781 -37.7205 32.050062 -38.353313 32.050062 -39.138469 C 32.050062 -39.919719 32.686781 -40.556438 33.468031 -40.556438 C 34.249281 -40.556438 34.886 -39.919719 34.886 -39.138469 Z M 34.886 -39.138469 " transform="matrix(1,0,0,-1,65.864,2.217)"/>
<path style="fill-rule:nonzero;fill:rgb(0%,0%,0%);fill-opacity:1;stroke-width:0.3985;stroke-linecap:butt;stroke-linejoin:miter;stroke:rgb(0%,0%,0%);stroke-opacity:1;stroke-miterlimit:10;" d="M -51.344469 -78.275188 C -51.344469 -77.490031 -51.981188 -76.857219 -52.762438 -76.857219 C -53.543688 -76.857219 -54.180406 -77.490031 -54.180406 -78.275188 C -54.180406 -79.056438 -53.543688 -79.693156 -52.762438 -79.693156 C -51.981188 -79.693156 -51.344469 -79.056438 -51.344469 -78.275188 Z M -51.344469 -78.275188 " transform="matrix(1,0,0,-1,65.864,2.217)"/>
<path style="fill-rule:nonzero;fill:rgb(0%,0%,0%);fill-opacity:1;stroke-width:0.3985;stroke-linecap:butt;stroke-linejoin:miter;stroke:rgb(0%,0%,0%);stroke-opacity:1;stroke-miterlimit:10;" d="M -15.590563 -78.275188 C -15.590563 -77.490031 -16.227281 -76.857219 -17.008531 -76.857219 C -17.789781 -76.857219 -18.4265 -77.490031 -18.4265 -78.275188 C -18.4265 -79.056438 -17.789781 -79.693156 -17.008531 -79.693156 C -16.227281 -79.693156 -15.590563 -79.056438 -15.590563 -78.275188 Z M -15.590563 -78.275188 " transform="matrix(1,0,0,-1,65.864,2.217)"/>
<path style="fill-rule:nonzero;fill:rgb(0%,0%,0%);fill-opacity:1;stroke-width:0.3985;stroke-linecap:butt;stroke-linejoin:miter;stroke:rgb(0%,0%,0%);stroke-opacity:1;stroke-miterlimit:10;" d="M 18.425062 -78.275188 C 18.425062 -77.490031 17.79225 -76.857219 17.007094 -76.857219 C 16.225844 -76.857219 15.589125 -77.490031 15.589125 -78.275188 C 15.589125 -79.056438 16.225844 -79.693156 17.007094 -79.693156 C 17.79225 -79.693156 18.425062 -79.056438 18.425062 -78.275188 Z M 18.425062 -78.275188 " transform="matrix(1,0,0,-1,65.864,2.217)"/>
<path style="fill-rule:nonzero;fill:rgb(0%,0%,0%);fill-opacity:1;stroke-width:0.3985;stroke-linecap:butt;stroke-linejoin:miter;stroke:rgb(0%,0%,0%);stroke-opacity:1;stroke-miterlimit:10;" d="M 51.346937 -78.275188 C 51.346937 -77.490031 50.710219 -76.857219 49.928969 -76.857219 C 49.143812 -76.857219 48.511 -77.490031 48.511 -78.275188 C 48.511 -79.056438 49.143812 -79.693156 49.928969 -79.693156 C 50.710219 -79.693156 51.346937 -79.056438 51.346937 -78.275188 Z M 51.346937 -78.275188 " transform="matrix(1,0,0,-1,65.864,2.217)"/>
<path style="fill-rule:nonzero;fill:rgb(0%,0%,0%);fill-opacity:1;stroke-width:0.3985;stroke-linecap:butt;stroke-linejoin:miter;stroke:rgb(0%,0%,0%);stroke-opacity:1;stroke-miterlimit:10;" d="M -62.137438 -108.908 C -62.137438 -108.12675 -62.77025 -107.490031 -63.5515 -107.490031 C -64.336656 -107.490031 -64.969469 -108.12675 -64.969469 -108.908 C -64.969469 -109.68925 -64.336656 -110.325969 -63.5515 -110.325969 C -62.77025 -110.325969 -62.137438 -109.68925 -62.137438 -108.908 Z M -62.137438 -108.908 " transform="matrix(1,0,0,-1,65.864,2.217)"/>
<path style="fill-rule:nonzero;fill:rgb(0%,0%,0%);fill-opacity:1;stroke-width:0.3985;stroke-linecap:butt;stroke-linejoin:miter;stroke:rgb(0%,0%,0%);stroke-opacity:1;stroke-miterlimit:10;" d="M -40.555406 -108.908 C -40.555406 -108.12675 -41.188219 -107.490031 -41.973375 -107.490031 C -42.754625 -107.490031 -43.391344 -108.12675 -43.391344 -108.908 C -43.391344 -109.68925 -42.754625 -110.325969 -41.973375 -110.325969 C -41.188219 -110.325969 -40.555406 -109.68925 -40.555406 -108.908 Z M -40.555406 -108.908 " transform="matrix(1,0,0,-1,65.864,2.217)"/>
<path style="fill-rule:nonzero;fill:rgb(0%,0%,0%);fill-opacity:1;stroke-width:0.3985;stroke-linecap:butt;stroke-linejoin:miter;stroke:rgb(0%,0%,0%);stroke-opacity:1;stroke-miterlimit:10;" d="M -26.379625 -108.908 C -26.379625 -108.12675 -27.016344 -107.490031 -27.797594 -107.490031 C -28.58275 -107.490031 -29.215563 -108.12675 -29.215563 -108.908 C -29.215563 -109.68925 -28.58275 -110.325969 -27.797594 -110.325969 C -27.016344 -110.325969 -26.379625 -109.68925 -26.379625 -108.908 Z M -26.379625 -108.908 " transform="matrix(1,0,0,-1,65.864,2.217)"/>
<path style="fill-rule:nonzero;fill:rgb(0%,0%,0%);fill-opacity:1;stroke-width:0.3985;stroke-linecap:butt;stroke-linejoin:miter;stroke:rgb(0%,0%,0%);stroke-opacity:1;stroke-miterlimit:10;" d="M -4.8015 -108.908 C -4.8015 -108.12675 -5.434313 -107.490031 -6.219469 -107.490031 C -7.000719 -107.490031 -7.633531 -108.12675 -7.633531 -108.908 C -7.633531 -109.68925 -7.000719 -110.325969 -6.219469 -110.325969 C -5.434313 -110.325969 -4.8015 -109.68925 -4.8015 -108.908 Z M -4.8015 -108.908 " transform="matrix(1,0,0,-1,65.864,2.217)"/>
<path style="fill-rule:nonzero;fill:rgb(0%,0%,0%);fill-opacity:1;stroke-width:0.3985;stroke-linecap:butt;stroke-linejoin:miter;stroke:rgb(0%,0%,0%);stroke-opacity:1;stroke-miterlimit:10;" d="M 7.636 -108.908 C 7.636 -108.12675 6.999281 -107.490031 6.218031 -107.490031 C 5.436781 -107.490031 4.800062 -108.12675 4.800062 -108.908 C 4.800062 -109.68925 5.436781 -110.325969 6.218031 -110.325969 C 6.999281 -110.325969 7.636 -109.68925 7.636 -108.908 Z M 7.636 -108.908 " transform="matrix(1,0,0,-1,65.864,2.217)"/>
<path style="fill-rule:nonzero;fill:rgb(0%,0%,0%);fill-opacity:1;stroke-width:0.3985;stroke-linecap:butt;stroke-linejoin:miter;stroke:rgb(0%,0%,0%);stroke-opacity:1;stroke-miterlimit:10;" d="M 29.218031 -108.908 C 29.218031 -108.12675 28.581312 -107.490031 27.800062 -107.490031 C 27.014906 -107.490031 26.382094 -108.12675 26.382094 -108.908 C 26.382094 -109.68925 27.014906 -110.325969 27.800062 -110.325969 C 28.581312 -110.325969 29.218031 -109.68925 29.218031 -108.908 Z M 29.218031 -108.908 " transform="matrix(1,0,0,-1,65.864,2.217)"/>
<path style="fill-rule:nonzero;fill:rgb(0%,0%,0%);fill-opacity:1;stroke-width:0.3985;stroke-linecap:butt;stroke-linejoin:miter;stroke:rgb(0%,0%,0%);stroke-opacity:1;stroke-miterlimit:10;" d="M 40.553969 -108.908 C 40.553969 -108.12675 39.921156 -107.490031 39.136 -107.490031 C 38.35475 -107.490031 37.718031 -108.12675 37.718031 -108.908 C 37.718031 -109.68925 38.35475 -110.325969 39.136 -110.325969 C 39.921156 -110.325969 40.553969 -109.68925 40.553969 -108.908 Z M 40.553969 -108.908 " transform="matrix(1,0,0,-1,65.864,2.217)"/>
<path style="fill-rule:nonzero;fill:rgb(0%,0%,0%);fill-opacity:1;stroke-width:0.3985;stroke-linecap:butt;stroke-linejoin:miter;stroke:rgb(0%,0%,0%);stroke-opacity:1;stroke-miterlimit:10;" d="M 62.136 -108.908 C 62.136 -108.12675 61.499281 -107.490031 60.718031 -107.490031 C 59.936781 -107.490031 59.300062 -108.12675 59.300062 -108.908 C 59.300062 -109.68925 59.936781 -110.325969 60.718031 -110.325969 C 61.499281 -110.325969 62.136 -109.68925 62.136 -108.908 Z M 62.136 -108.908 " transform="matrix(1,0,0,-1,65.864,2.217)"/>
<path style="fill:none;stroke-width:0.79701;stroke-linecap:butt;stroke-linejoin:miter;stroke:rgb(0%,0%,0%);stroke-opacity:1;stroke-miterlimit:10;" d="M -1.0515 -1.228312 L -32.418688 -37.908 " transform="matrix(1,0,0,-1,65.864,2.217)"/>
<path style="fill:none;stroke-width:0.79701;stroke-linecap:butt;stroke-linejoin:miter;stroke:rgb(0%,0%,0%);stroke-opacity:1;stroke-miterlimit:10;" d="M 1.050062 -1.228312 L 32.41725 -37.908 " transform="matrix(1,0,0,-1,65.864,2.217)"/>
<path style="fill:none;stroke-width:0.79701;stroke-linecap:butt;stroke-linejoin:miter;stroke:rgb(0%,0%,0%);stroke-opacity:1;stroke-miterlimit:10;" d="M -34.184313 -40.587688 L -52.047594 -76.825969 " transform="matrix(1,0,0,-1,65.864,2.217)"/>
<path style="fill:none;stroke-width:0.79701;stroke-linecap:butt;stroke-linejoin:miter;stroke:rgb(0%,0%,0%);stroke-opacity:1;stroke-miterlimit:10;" d="M -32.840563 -40.62675 L -17.633531 -76.783 " transform="matrix(1,0,0,-1,65.864,2.217)"/>
<path style="fill:none;stroke-width:0.79701;stroke-linecap:butt;stroke-linejoin:miter;stroke:rgb(0%,0%,0%);stroke-opacity:1;stroke-miterlimit:10;" d="M 32.843031 -40.62675 L 17.636 -76.783 " transform="matrix(1,0,0,-1,65.864,2.217)"/>
<path style="fill:none;stroke-width:0.79701;stroke-linecap:butt;stroke-linejoin:miter;stroke:rgb(0%,0%,0%);stroke-opacity:1;stroke-miterlimit:10;" d="M 34.093031 -40.62675 L 49.300062 -76.783 " transform="matrix(1,0,0,-1,65.864,2.217)"/>
<path style="fill:none;stroke-width:0.79701;stroke-linecap:butt;stroke-linejoin:miter;stroke:rgb(0%,0%,0%);stroke-opacity:1;stroke-miterlimit:10;" d="M -53.3015 -79.798625 L -63.016344 -107.384563 " transform="matrix(1,0,0,-1,65.864,2.217)"/>
<path style="fill:none;stroke-width:0.79701;stroke-linecap:butt;stroke-linejoin:miter;stroke:rgb(0%,0%,0%);stroke-opacity:1;stroke-miterlimit:10;" d="M -52.227281 -79.798625 L -42.508531 -107.384563 " transform="matrix(1,0,0,-1,65.864,2.217)"/>
<path style="fill:none;stroke-width:0.79701;stroke-linecap:butt;stroke-linejoin:miter;stroke:rgb(0%,0%,0%);stroke-opacity:1;stroke-miterlimit:10;" d="M -17.543688 -79.798625 L -27.262438 -107.384563 " transform="matrix(1,0,0,-1,65.864,2.217)"/>
<path style="fill:none;stroke-width:0.79701;stroke-linecap:butt;stroke-linejoin:miter;stroke:rgb(0%,0%,0%);stroke-opacity:1;stroke-miterlimit:10;" d="M -16.469469 -79.798625 L -6.754625 -107.384563 " transform="matrix(1,0,0,-1,65.864,2.217)"/>
<path style="fill:none;stroke-width:0.79701;stroke-linecap:butt;stroke-linejoin:miter;stroke:rgb(0%,0%,0%);stroke-opacity:1;stroke-miterlimit:10;" d="M 16.471937 -79.798625 L 6.753187 -107.384563 " transform="matrix(1,0,0,-1,65.864,2.217)"/>
<path style="fill:none;stroke-width:0.79701;stroke-linecap:butt;stroke-linejoin:miter;stroke:rgb(0%,0%,0%);stroke-opacity:1;stroke-miterlimit:10;" d="M 17.546156 -79.798625 L 27.261 -107.384563 " transform="matrix(1,0,0,-1,65.864,2.217)"/>
<path style="fill:none;stroke-width:0.79701;stroke-linecap:butt;stroke-linejoin:miter;stroke:rgb(0%,0%,0%);stroke-opacity:1;stroke-miterlimit:10;" d="M 49.389906 -79.798625 L 39.675062 -107.384563 " transform="matrix(1,0,0,-1,65.864,2.217)"/>
<path style="fill:none;stroke-width:0.79701;stroke-linecap:butt;stroke-linejoin:miter;stroke:rgb(0%,0%,0%);stroke-opacity:1;stroke-miterlimit:10;" d="M 50.464125 -79.798625 L 60.182875 -107.384563 " transform="matrix(1,0,0,-1,65.864,2.217)"/>
</g>
</svg>
