<?xml version="1.0" encoding="UTF-8"?>
<svg xmlns="http://www.w3.org/2000/svg" xmlns:xlink="http://www.w3.org/1999/xlink" width="279pt" height="83pt" viewBox="0 0 279 83" version="1.1">
<g id="surface1">
<path style="fill-rule:nonzero;fill:rgb(0%,0%,0%);fill-opacity:1;stroke-width:0.3985;stroke-linecap:butt;stroke-linejoin:miter;stroke:rgb(0%,0%,0%);stroke-opacity:1;stroke-miterlimit:10;" d="M 1.417187 -0.0018125 C 1.417187 0.783344 0.784375 1.416156 -0.00078125 1.416156 C -0.782031 1.416156 -1.41875 0.783344 -1.41875 -0.0018125 C -1.41875 -0.783062 -0.782031 -1.415875 -0.00078125 -1.415875 C 0.784375 -1.415875 1.417187 -0.783062 1.417187 -0.0018125 Z M 1.417187 -0.0018125 " transform="matrix(1,0,0,-1,46.2,36.631)"/>
<path style="fill-rule:nonzero;fill:rgb(0%,0%,0%);fill-opacity:1;stroke-width:0.3985;stroke-linecap:butt;stroke-linejoin:miter;stroke:rgb(0%,0%,0%);stroke-opacity:1;stroke-miterlimit:10;" d="M 23.749219 22.330219 C 23.749219 23.111469 23.1125 23.748188 22.33125 23.748188 C 21.546094 23.748188 20.913281 23.111469 20.913281 22.330219 C 20.913281 21.548969 21.546094 20.91225 22.33125 20.91225 C 23.1125 20.91225 23.749219 21.548969 23.749219 22.330219 Z M 23.749219 22.330219 " transform="matrix(1,0,0,-1,46.2,36.631)"/>
<path style="fill-rule:nonzero;fill:rgb(0%,0%,0%);fill-opacity:1;stroke-width:0.3985;stroke-linecap:butt;stroke-linejoin:miter;stroke:rgb(0%,0%,0%);stroke-opacity:1;stroke-miterlimit:10;" d="M 23.749219 -22.329937 C 23.749219 -21.548687 23.1125 -20.911969 22.33125 -20.911969 C 21.546094 -20.911969 20.913281 -21.548687 20.913281 -22.329937 C 20.913281 -23.115094 21.546094 -23.747906 22.33125 -23.747906 C 23.1125 -23.747906 23.749219 -23.115094 23.749219 -22.329937 Z M 23.749219 -22.329937 " transform="matrix(1,0,0,-1,46.2,36.631)"/>
<path style="fill-rule:nonzero;fill:rgb(0%,0%,0%);fill-opacity:1;stroke-width:0.3985;stroke-linecap:butt;stroke-linejoin:miter;stroke:rgb(0%,0%,0%);stroke-opacity:1;stroke-miterlimit:10;" d="M 1.417187 -31.579937 C 1.417187 -30.798687 0.784375 -30.161969 -0.00078125 -30.161969 C -0.782031 -30.161969 -1.41875 -30.798687 -1.41875 -31.579937 C -1.41875 -32.361187 -0.782031 -32.997906 -0.00078125 -32.997906 C 0.784375 -32.997906 1.417187 -32.361187 1.417187 -31.579937 Z M 1.417187 -31.579937 " transform="matrix(1,0,0,-1,46.2,36.631)"/>
<path style="fill-rule:nonzero;fill:rgb(0%,0%,0%);fill-opacity:1;stroke-width:0.3985;stroke-linecap:butt;stroke-linejoin:miter;stroke:rgb(0%,0%,0%);stroke-opacity:1;stroke-miterlimit:10;" d="M -30.160938 -0.0018125 C -30.160938 0.783344 -30.797656 1.416156 -31.578906 1.416156 C -32.364063 1.416156 -32.996875 0.783344 -32.996875 -0.0018125 C -32.996875 -0.783062 -32.364063 -1.415875 -31.578906 -1.415875 C -30.797656 -1.415875 -30.160938 -0.783062 -30.160938 -0.0018125 Z M -30.160938 -0.0018125 " transform="matrix(1,0,0,-1,46.2,36.631)"/>
<path style="fill-rule:nonzero;fill:rgb(0%,0%,0%);fill-opacity:1;stroke-width:0.3985;stroke-linecap:butt;stroke-linejoin:miter;stroke:rgb(0%,0%,0%);stroke-opacity:1;stroke-miterlimit:10;" d="M 36.057812 34.638813 C 36.057812 35.420063 35.421094 36.056781 34.639844 36.056781 C 33.854687 36.056781 33.221875 35.420063 33.221875 34.638813 C 33.221875 33.857563 33.854687 33.220844 34.639844 33.220844 C 35.421094 33.220844 36.057812 33.857563 36.057812 34.638813 Z M 36.057812 34.638813 " transform="matrix(1,0,0,-1,46.2,36.631)"/>
<path style="fill-rule:nonzero;fill:rgb(0%,0%,0%);fill-opacity:1;stroke-width:0.3985;stroke-linecap:butt;stroke-linejoin:miter;stroke:rgb(0%,0%,0%);stroke-opacity:1;stroke-miterlimit:10;" d="M 36.057812 10.021625 C 36.057812 10.806781 35.421094 11.439594 34.639844 11.439594 C 33.854687 11.439594 33.221875 10.806781 33.221875 10.021625 C 33.221875 9.240375 33.854687 8.603656 34.639844 8.603656 C 35.421094 8.603656 36.057812 9.240375 36.057812 10.021625 Z M 36.057812 10.021625 " transform="matrix(1,0,0,-1,46.2,36.631)"/>
<path style="fill-rule:nonzero;fill:rgb(0%,0%,0%);fill-opacity:1;stroke-width:0.3985;stroke-linecap:butt;stroke-linejoin:miter;stroke:rgb(0%,0%,0%);stroke-opacity:1;stroke-miterlimit:10;" d="M 36.057812 -10.021344 C 36.057812 -9.240094 35.421094 -8.603375 34.639844 -8.603375 C 33.854687 -8.603375 33.221875 -9.240094 33.221875 -10.021344 C 33.221875 -10.8065 33.854687 -11.439312 34.639844 -11.439312 C 35.421094 -11.439312 36.057812 -10.8065 36.057812 -10.021344 Z M 36.057812 -10.021344 " transform="matrix(1,0,0,-1,46.2,36.631)"/>
<path style="fill-rule:nonzero;fill:rgb(0%,0%,0%);fill-opacity:1;stroke-width:0.3985;stroke-linecap:butt;stroke-linejoin:miter;stroke:rgb(0%,0%,0%);stroke-opacity:1;stroke-miterlimit:10;" d="M 36.057812 -34.638531 C 36.057812 -33.857281 35.421094 -33.220562 34.639844 -33.220562 C 33.854687 -33.220562 33.221875 -33.857281 33.221875 -34.638531 C 33.221875 -35.423687 33.854687 -36.0565 34.639844 -36.0565 C 35.421094 -36.0565 36.057812 -35.423687 36.057812 -34.638531 Z M 36.057812 -34.638531 " transform="matrix(1,0,0,-1,46.2,36.631)"/>
<path style="fill-rule:nonzero;fill:rgb(0%,0%,0%);fill-opacity:1;stroke-width:0.3985;stroke-linecap:butt;stroke-linejoin:miter;stroke:rgb(0%,0%,0%);stroke-opacity:1;stroke-miterlimit:10;" d="M 13.725781 -43.888531 C 13.725781 -43.107281 13.092969 -42.470562 12.307812 -42.470562 C 11.526562 -42.470562 10.889844 -43.107281 10.889844 -43.888531 C 10.889844 -44.669781 11.526562 -45.3065 12.307812 -45.3065 C 13.092969 -45.3065 13.725781 -44.669781 13.725781 -43.888531 Z M 13.725781 -43.888531 " transform="matrix(1,0,0,-1,46.2,36.631)"/>
<path style="fill-rule:nonzero;fill:rgb(0%,0%,0%);fill-opacity:1;stroke-width:0.3985;stroke-linecap:butt;stroke-linejoin:miter;stroke:rgb(0%,0%,0%);stroke-opacity:1;stroke-miterlimit:10;" d="M -10.891406 -43.888531 C -10.891406 -43.107281 -11.524219 -42.470562 -12.309375 -42.470562 C -13.090625 -42.470562 -13.727344 -43.107281 -13.727344 -43.888531 C -13.727344 -44.669781 -13.090625 -45.3065 -12.309375 -45.3065 C -11.524219 -45.3065 -10.891406 -44.669781 -10.891406 -43.888531 Z M -10.891406 -43.888531 " transform="matrix(1,0,0,-1,46.2,36.631)"/>
<path style="fill-rule:nonzero;fill:rgb(0%,0%,0%);fill-opacity:1;stroke-width:0.3985;stroke-linecap:butt;stroke-linejoin:miter;stroke:rgb(0%,0%,0%);stroke-opacity:1;stroke-miterlimit:10;" d="M -42.469531 12.306781 C -42.469531 13.091938 -43.10625 13.72475 -43.8875 13.72475 C -44.672656 13.72475 -45.305469 13.091938 -45.305469 12.306781 C -45.305469 11.525531 -44.672656 10.892719 -43.8875 10.892719 C -43.10625 10.892719 -42.469531 11.525531 -42.469531 12.306781 Z M -42.469531 12.306781 " transform="matrix(1,0,0,-1,46.2,36.631)"/>
<path style="fill-rule:nonzero;fill:rgb(0%,0%,0%);fill-opacity:1;stroke-width:0.3985;stroke-linecap:butt;stroke-linejoin:miter;stroke:rgb(0%,0%,0%);stroke-opacity:1;stroke-miterlimit:10;" d="M -42.469531 -12.3065 C -42.469531 -11.52525 -43.10625 -10.892437 -43.8875 -10.892437 C -44.672656 -10.892437 -45.305469 -11.52525 -45.305469 -12.3065 C -45.305469 -13.091656 -44.672656 -13.724469 -43.8875 -13.724469 C -43.10625 -13.724469 -42.469531 -13.091656 -42.469531 -12.3065 Z M -42.469531 -12.3065 " transform="matrix(1,0,0,-1,46.2,36.631)"/>
<path style="fill:none;stroke-width:0.79701;stroke-linecap:butt;stroke-linejoin:miter;stroke:rgb(0%,0%,0%);stroke-opacity:1;stroke-miterlimit:10;" d="M 1.14375 1.142719 L 21.186719 21.185688 " transform="matrix(1,0,0,-1,46.2,36.631)"/>
<path style="fill:none;stroke-width:0.79701;stroke-linecap:butt;stroke-linejoin:miter;stroke:rgb(0%,0%,0%);stroke-opacity:1;stroke-miterlimit:10;" d="M 1.14375 -1.142437 L 21.186719 -21.189312 " transform="matrix(1,0,0,-1,46.2,36.631)"/>
<path style="fill:none;stroke-width:0.79701;stroke-linecap:butt;stroke-linejoin:miter;stroke:rgb(0%,0%,0%);stroke-opacity:1;stroke-miterlimit:10;" d="M -0.00078125 -1.615094 L -0.00078125 -29.96275 " transform="matrix(1,0,0,-1,46.2,36.631)"/>
<path style="fill:none;stroke-width:0.79701;stroke-linecap:butt;stroke-linejoin:miter;stroke:rgb(0%,0%,0%);stroke-opacity:1;stroke-miterlimit:10;" d="M -1.617969 -0.0018125 L -29.961719 -0.0018125 " transform="matrix(1,0,0,-1,46.2,36.631)"/>
<path style="fill:none;stroke-width:0.79701;stroke-linecap:butt;stroke-linejoin:miter;stroke:rgb(0%,0%,0%);stroke-opacity:1;stroke-miterlimit:10;" d="M 23.471875 23.47475 L 33.495312 33.494281 " transform="matrix(1,0,0,-1,46.2,36.631)"/>
<path style="fill:none;stroke-width:0.79701;stroke-linecap:butt;stroke-linejoin:miter;stroke:rgb(0%,0%,0%);stroke-opacity:1;stroke-miterlimit:10;" d="M 23.471875 21.185688 L 33.495312 11.166156 " transform="matrix(1,0,0,-1,46.2,36.631)"/>
<path style="fill:none;stroke-width:0.79701;stroke-linecap:butt;stroke-linejoin:miter;stroke:rgb(0%,0%,0%);stroke-opacity:1;stroke-miterlimit:10;" d="M 23.471875 -21.189312 L 33.495312 -11.165875 " transform="matrix(1,0,0,-1,46.2,36.631)"/>
<path style="fill:none;stroke-width:0.79701;stroke-linecap:butt;stroke-linejoin:miter;stroke:rgb(0%,0%,0%);stroke-opacity:1;stroke-miterlimit:10;" d="M 23.471875 -23.474469 L 33.495312 -33.494 " transform="matrix(1,0,0,-1,46.2,36.631)"/>
<path style="fill:none;stroke-width:0.79701;stroke-linecap:butt;stroke-linejoin:miter;stroke:rgb(0%,0%,0%);stroke-opacity:1;stroke-miterlimit:10;" d="M 1.14375 -32.724469 L 11.167187 -42.744 " transform="matrix(1,0,0,-1,46.2,36.631)"/>
<path style="fill:none;stroke-width:0.79701;stroke-linecap:butt;stroke-linejoin:miter;stroke:rgb(0%,0%,0%);stroke-opacity:1;stroke-miterlimit:10;" d="M -1.141406 -32.724469 L -11.164844 -42.744 " transform="matrix(1,0,0,-1,46.2,36.631)"/>
<path style="fill:none;stroke-width:0.79701;stroke-linecap:butt;stroke-linejoin:miter;stroke:rgb(0%,0%,0%);stroke-opacity:1;stroke-miterlimit:10;" d="M -32.723438 1.142719 L -42.746875 11.166156 " transform="matrix(1,0,0,-1,46.2,36.631)"/>
<path style="fill:none;stroke-width:0.79701;stroke-linecap:butt;stroke-linejoin:miter;stroke:rgb(0%,0%,0%);stroke-opacity:1;stroke-miterlimit:10;" d="M -32.723438 -1.142437 L -42.746875 -11.165875 " transform="matrix(1,0,0,-1,46.2,36.631)"/>
<path style="fill:none;stroke-width:0.79701;stroke-linecap:butt;stroke-linejoin:miter;stroke:rgb(0%,0%,0%);stroke-opacity:1;stroke-miterlimit:10;" d="M -1.141406 -30.435406 L -30.438281 -1.142437 " transform="matrix(1,0,0,-1,46.2,36.631)"/>
<path style="fill-rule:nonzero;fill:rgb(0%,0%,0%);fill-opacity:1;stroke-width:0.3985;stroke-linecap:butt;stroke-linejoin:miter;stroke:rgb(0%,0%,0%);stroke-opacity:1;stroke-miterlimit:10;" d="M 75.51875 -0.0018125 C 75.51875 0.783344 74.882031 1.416156 74.100781 1.416156 C 73.315625 1.416156 72.682812 0.783344 72.682812 -0.0018125 C 72.682812 -0.783062 73.315625 -1.415875 74.100781 -1.415875 C 74.882031 -1.415875 75.51875 -0.783062 75.51875 -0.0018125 Z M 75.51875 -0.0018125 " transform="matrix(1,0,0,-1,46.2,36.631)"/>
<path style="fill-rule:nonzero;fill:rgb(0%,0%,0%);fill-opacity:1;stroke-width:0.3985;stroke-linecap:butt;stroke-linejoin:miter;stroke:rgb(0%,0%,0%);stroke-opacity:1;stroke-miterlimit:10;" d="M 107.096875 -0.0018125 C 107.096875 0.783344 106.464062 1.416156 105.678906 1.416156 C 104.897656 1.416156 104.264844 0.783344 104.264844 -0.0018125 C 104.264844 -0.783062 104.897656 -1.415875 105.678906 -1.415875 C 106.464062 -1.415875 107.096875 -0.783062 107.096875 -0.0018125 Z M 107.096875 -0.0018125 " transform="matrix(1,0,0,-1,46.2,36.631)"/>
<path style="fill-rule:nonzero;fill:rgb(0%,0%,0%);fill-opacity:1;stroke-width:0.3985;stroke-linecap:butt;stroke-linejoin:miter;stroke:rgb(0%,0%,0%);stroke-opacity:1;stroke-miterlimit:10;" d="M 138.678906 -0.0018125 C 138.678906 0.783344 138.042188 1.416156 137.260938 1.416156 C 136.479688 1.416156 135.842969 0.783344 135.842969 -0.0018125 C 135.842969 -0.783062 136.479688 -1.415875 137.260938 -1.415875 C 138.042188 -1.415875 138.678906 -0.783062 138.678906 -0.0018125 Z M 138.678906 -0.0018125 " transform="matrix(1,0,0,-1,46.2,36.631)"/>
<path style="fill-rule:nonzero;fill:rgb(0%,0%,0%);fill-opacity:1;stroke-width:0.3985;stroke-linecap:butt;stroke-linejoin:miter;stroke:rgb(0%,0%,0%);stroke-opacity:1;stroke-miterlimit:10;" d="M 170.257031 -0.0018125 C 170.257031 0.783344 169.624219 1.416156 168.839063 1.416156 C 168.057813 1.416156 167.425 0.783344 167.425 -0.0018125 C 167.425 -0.783062 168.057813 -1.415875 168.839063 -1.415875 C 169.624219 -1.415875 170.257031 -0.783062 170.257031 -0.0018125 Z M 170.257031 -0.0018125 " transform="matrix(1,0,0,-1,46.2,36.631)"/>
<path style="fill:none;stroke-width:0.79701;stroke-linecap:butt;stroke-linejoin:miter;stroke:rgb(0%,0%,0%);stroke-opacity:1;stroke-miterlimit:10;" d="M 75.717969 -0.0018125 L 104.065625 -0.0018125 " transform="matrix(1,0,0,-1,46.2,36.631)"/>
<path style="fill:none;stroke-width:0.79701;stroke-linecap:butt;stroke-linejoin:miter;stroke:rgb(0%,0%,0%);stroke-opacity:1;stroke-miterlimit:10;" d="M 107.08125 -0.8065 C 116.8 -6.419781 126.139844 -6.419781 135.8625 -0.8065 " transform="matrix(1,0,0,-1,46.2,36.631)"/>
<path style="fill:none;stroke-width:0.79701;stroke-linecap:butt;stroke-linejoin:miter;stroke:rgb(0%,0%,0%);stroke-opacity:1;stroke-miterlimit:10;" d="M 107.08125 0.806781 C 116.8 6.420063 126.139844 6.420063 135.8625 0.806781 " transform="matrix(1,0,0,-1,46.2,36.631)"/>
<path style="fill:none;stroke-width:0.79701;stroke-linecap:butt;stroke-linejoin:miter;stroke:rgb(0%,0%,0%);stroke-opacity:1;stroke-miterlimit:10;" d="M 138.878125 -0.0018125 L 167.225781 -0.0018125 " transform="matrix(1,0,0,-1,46.2,36.631)"/>
<path style="fill-rule:nonzero;fill:rgb(0%,0%,0%);fill-opacity:1;stroke-width:0.3985;stroke-linecap:butt;stroke-linejoin:miter;stroke:rgb(0%,0%,0%);stroke-opacity:1;stroke-miterlimit:10;" d="M 230.186719 -0.0018125 C 230.186719 0.783344 229.55 1.416156 228.76875 1.416156 C 227.983594 1.416156 227.350781 0.783344 227.350781 -0.0018125 C 227.350781 -0.783062 227.983594 -1.415875 228.76875 -1.415875 C 229.55 -1.415875 230.186719 -0.783062 230.186719 -0.0018125 Z M 230.186719 -0.0018125 " transform="matrix(1,0,0,-1,46.2,36.631)"/>
<path style="fill:none;stroke-width:0.79701;stroke-linecap:butt;stroke-linejoin:miter;stroke:rgb(0%,0%,0%);stroke-opacity:1;stroke-miterlimit:10;" d="M 228.350781 1.560688 C 217.342969 42.634906 240.190625 42.634906 229.186719 1.560688 " transform="matrix(1,0,0,-1,46.2,36.631)"/>
</g>
</svg>
