<?xml version="1.0" encoding="UTF-8"?>
<svg xmlns="http://www.w3.org/2000/svg" xmlns:xlink="http://www.w3.org/1999/xlink" width="277pt" height="83pt" viewBox="0 0 277 83" version="1.1">
<g id="surface1">
<path style="fill-rule:nonzero;fill:rgb(0%,0%,0%);fill-opacity:1;stroke-width:0.3985;stroke-linecap:butt;stroke-linejoin:miter;stroke:rgb(0%,0%,0%);stroke-opacity:1;stroke-miterlimit:10;" d="M 1.417187 -0.00046875 C 1.417187 0.784688 0.784375 1.4175 -0.00078125 1.4175 C -0.782031 1.4175 -1.41875 0.784688 -1.41875 -0.00046875 C -1.41875 -0.781719 -0.782031 -1.418437 -0.00078125 -1.418437 C 0.784375 -1.418437 1.417187 -0.781719 1.417187 -0.00046875 Z M 1.417187 -0.00046875 " transform="matrix(1,0,0,-1,46.2,36.855)"/>
<path style="fill-rule:nonzero;fill:rgb(0%,0%,0%);fill-opacity:1;stroke-width:0.3985;stroke-linecap:butt;stroke-linejoin:miter;stroke:rgb(0%,0%,0%);stroke-opacity:1;stroke-miterlimit:10;" d="M 23.749219 22.331563 C 23.749219 23.112813 23.1125 23.749531 22.33125 23.749531 C 21.546094 23.749531 20.913281 23.112813 20.913281 22.331563 C 20.913281 21.546406 21.546094 20.913594 22.33125 20.913594 C 23.1125 20.913594 23.749219 21.546406 23.749219 22.331563 Z M 23.749219 22.331563 " transform="matrix(1,0,0,-1,46.2,36.855)"/>
<path style="fill-rule:nonzero;fill:rgb(0%,0%,0%);fill-opacity:1;stroke-width:0.3985;stroke-linecap:butt;stroke-linejoin:miter;stroke:rgb(0%,0%,0%);stroke-opacity:1;stroke-miterlimit:10;" d="M 23.749219 -22.328594 C 23.749219 -21.547344 23.1125 -20.914531 22.33125 -20.914531 C 21.546094 -20.914531 20.913281 -21.547344 20.913281 -22.328594 C 20.913281 -23.11375 21.546094 -23.746562 22.33125 -23.746562 C 23.1125 -23.746562 23.749219 -23.11375 23.749219 -22.328594 Z M 23.749219 -22.328594 " transform="matrix(1,0,0,-1,46.2,36.855)"/>
<path style="fill-rule:nonzero;fill:rgb(0%,0%,0%);fill-opacity:1;stroke-width:0.3985;stroke-linecap:butt;stroke-linejoin:miter;stroke:rgb(0%,0%,0%);stroke-opacity:1;stroke-miterlimit:10;" d="M 1.417187 -31.578594 C 1.417187 -30.797344 0.784375 -30.164531 -0.00078125 -30.164531 C -0.782031 -30.164531 -1.41875 -30.797344 -1.41875 -31.578594 C -1.41875 -32.36375 -0.782031 -32.996562 -0.00078125 -32.996562 C 0.784375 -32.996562 1.417187 -32.36375 1.417187 -31.578594 Z M 1.417187 -31.578594 " transform="matrix(1,0,0,-1,46.2,36.855)"/>
<path style="fill-rule:nonzero;fill:rgb(0%,0%,0%);fill-opacity:1;stroke-width:0.3985;stroke-linecap:butt;stroke-linejoin:miter;stroke:rgb(0%,0%,0%);stroke-opacity:1;stroke-miterlimit:10;" d="M -30.160938 -0.00046875 C -30.160938 0.784688 -30.797656 1.4175 -31.578906 1.4175 C -32.364063 1.4175 -32.996875 0.784688 -32.996875 -0.00046875 C -32.996875 -0.781719 -32.364063 -1.418437 -31.578906 -1.418437 C -30.797656 -1.418437 -30.160938 -0.781719 -30.160938 -0.00046875 Z M -30.160938 -0.00046875 " transform="matrix(1,0,0,-1,46.2,36.855)"/>
<path style="fill-rule:nonzero;fill:rgb(0%,0%,0%);fill-opacity:1;stroke-width:0.3985;stroke-linecap:butt;stroke-linejoin:miter;stroke:rgb(0%,0%,0%);stroke-opacity:1;stroke-miterlimit:10;" d="M 36.057812 34.640156 C 36.057812 35.421406 35.421094 36.058125 34.639844 36.058125 C 33.854687 36.058125 33.221875 35.421406 33.221875 34.640156 C 33.221875 33.855 33.854687 33.222188 34.639844 33.222188 C 35.421094 33.222188 36.057812 33.855 36.057812 34.640156 Z M 36.057812 34.640156 " transform="matrix(1,0,0,-1,46.2,36.855)"/>
<path style="fill-rule:nonzero;fill:rgb(0%,0%,0%);fill-opacity:1;stroke-width:0.3985;stroke-linecap:butt;stroke-linejoin:miter;stroke:rgb(0%,0%,0%);stroke-opacity:1;stroke-miterlimit:10;" d="M 36.057812 10.022969 C 36.057812 10.804219 35.421094 11.440938 34.639844 11.440938 C 33.854687 11.440938 33.221875 10.804219 33.221875 10.022969 C 33.221875 9.237813 33.854687 8.605 34.639844 8.605 C 35.421094 8.605 36.057812 9.237813 36.057812 10.022969 Z M 36.057812 10.022969 " transform="matrix(1,0,0,-1,46.2,36.855)"/>
<path style="fill-rule:nonzero;fill:rgb(0%,0%,0%);fill-opacity:1;stroke-width:0.3985;stroke-linecap:butt;stroke-linejoin:miter;stroke:rgb(0%,0%,0%);stroke-opacity:1;stroke-miterlimit:10;" d="M 36.057812 -10.023906 C 36.057812 -9.23875 35.421094 -8.605937 34.639844 -8.605937 C 33.854687 -8.605937 33.221875 -9.23875 33.221875 -10.023906 C 33.221875 -10.805156 33.854687 -11.437969 34.639844 -11.437969 C 35.421094 -11.437969 36.057812 -10.805156 36.057812 -10.023906 Z M 36.057812 -10.023906 " transform="matrix(1,0,0,-1,46.2,36.855)"/>
<path style="fill-rule:nonzero;fill:rgb(0%,0%,0%);fill-opacity:1;stroke-width:0.3985;stroke-linecap:butt;stroke-linejoin:miter;stroke:rgb(0%,0%,0%);stroke-opacity:1;stroke-miterlimit:10;" d="M 36.057812 -34.637187 C 36.057812 -33.855937 35.421094 -33.223125 34.639844 -33.223125 C 33.854687 -33.223125 33.221875 -33.855937 33.221875 -34.637187 C 33.221875 -35.422344 33.854687 -36.055156 34.639844 -36.055156 C 35.421094 -36.055156 36.057812 -35.422344 36.057812 -34.637187 Z M 36.057812 -34.637187 " transform="matrix(1,0,0,-1,46.2,36.855)"/>
<path style="fill-rule:nonzero;fill:rgb(0%,0%,0%);fill-opacity:1;stroke-width:0.3985;stroke-linecap:butt;stroke-linejoin:miter;stroke:rgb(0%,0%,0%);stroke-opacity:1;stroke-miterlimit:10;" d="M 13.725781 -43.887187 C 13.725781 -43.105937 13.092969 -42.469219 12.307812 -42.469219 C 11.526562 -42.469219 10.889844 -43.105937 10.889844 -43.887187 C 10.889844 -44.672344 11.526562 -45.305156 12.307812 -45.305156 C 13.092969 -45.305156 13.725781 -44.672344 13.725781 -43.887187 Z M 13.725781 -43.887187 " transform="matrix(1,0,0,-1,46.2,36.855)"/>
<path style="fill-rule:nonzero;fill:rgb(0%,0%,0%);fill-opacity:1;stroke-width:0.3985;stroke-linecap:butt;stroke-linejoin:miter;stroke:rgb(0%,0%,0%);stroke-opacity:1;stroke-miterlimit:10;" d="M -10.891406 -43.887187 C -10.891406 -43.105937 -11.524219 -42.469219 -12.309375 -42.469219 C -13.090625 -42.469219 -13.727344 -43.105937 -13.727344 -43.887187 C -13.727344 -44.672344 -13.090625 -45.305156 -12.309375 -45.305156 C -11.524219 -45.305156 -10.891406 -44.672344 -10.891406 -43.887187 Z M -10.891406 -43.887187 " transform="matrix(1,0,0,-1,46.2,36.855)"/>
<path style="fill-rule:nonzero;fill:rgb(0%,0%,0%);fill-opacity:1;stroke-width:0.3985;stroke-linecap:butt;stroke-linejoin:miter;stroke:rgb(0%,0%,0%);stroke-opacity:1;stroke-miterlimit:10;" d="M -42.469531 12.308125 C -42.469531 13.089375 -43.10625 13.726094 -43.8875 13.726094 C -44.672656 13.726094 -45.305469 13.089375 -45.305469 12.308125 C -45.305469 11.526875 -44.672656 10.890156 -43.8875 10.890156 C -43.10625 10.890156 -42.469531 11.526875 -42.469531 12.308125 Z M -42.469531 12.308125 " transform="matrix(1,0,0,-1,46.2,36.855)"/>
<path style="fill-rule:nonzero;fill:rgb(0%,0%,0%);fill-opacity:1;stroke-width:0.3985;stroke-linecap:butt;stroke-linejoin:miter;stroke:rgb(0%,0%,0%);stroke-opacity:1;stroke-miterlimit:10;" d="M -42.469531 -12.309062 C -42.469531 -11.523906 -43.10625 -10.891094 -43.8875 -10.891094 C -44.672656 -10.891094 -45.305469 -11.523906 -45.305469 -12.309062 C -45.305469 -13.090312 -44.672656 -13.727031 -43.8875 -13.727031 C -43.10625 -13.727031 -42.469531 -13.090312 -42.469531 -12.309062 Z M -42.469531 -12.309062 " transform="matrix(1,0,0,-1,46.2,36.855)"/>
<path style="fill:none;stroke-width:0.79701;stroke-linecap:butt;stroke-linejoin:miter;stroke:rgb(0%,0%,0%);stroke-opacity:1;stroke-miterlimit:10;" d="M 1.14375 1.144063 L 21.186719 21.187031 " transform="matrix(1,0,0,-1,46.2,36.855)"/>
<path style="fill:none;stroke-width:0.79701;stroke-linecap:butt;stroke-linejoin:miter;stroke:rgb(0%,0%,0%);stroke-opacity:1;stroke-miterlimit:10;" d="M 1.14375 -1.145 L 21.186719 -21.187969 " transform="matrix(1,0,0,-1,46.2,36.855)"/>
<path style="fill:none;stroke-width:0.79701;stroke-linecap:butt;stroke-linejoin:miter;stroke:rgb(0%,0%,0%);stroke-opacity:1;stroke-miterlimit:10;" d="M -0.00078125 -1.617656 L -0.00078125 -29.965312 " transform="matrix(1,0,0,-1,46.2,36.855)"/>
<path style="fill:none;stroke-width:0.79701;stroke-linecap:butt;stroke-linejoin:miter;stroke:rgb(0%,0%,0%);stroke-opacity:1;stroke-miterlimit:10;" d="M -1.617969 -0.00046875 L -29.961719 -0.00046875 " transform="matrix(1,0,0,-1,46.2,36.855)"/>
<path style="fill:none;stroke-width:0.79701;stroke-linecap:butt;stroke-linejoin:miter;stroke:rgb(0%,0%,0%);stroke-opacity:1;stroke-miterlimit:10;" d="M 23.471875 23.472188 L 33.495312 33.495625 " transform="matrix(1,0,0,-1,46.2,36.855)"/>
<path style="fill:none;stroke-width:0.79701;stroke-linecap:butt;stroke-linejoin:miter;stroke:rgb(0%,0%,0%);stroke-opacity:1;stroke-miterlimit:10;" d="M 23.471875 21.187031 L 33.495312 11.163594 " transform="matrix(1,0,0,-1,46.2,36.855)"/>
<path style="fill:none;stroke-width:0.79701;stroke-linecap:butt;stroke-linejoin:miter;stroke:rgb(0%,0%,0%);stroke-opacity:1;stroke-miterlimit:10;" d="M 23.471875 -21.187969 L 33.495312 -11.164531 " transform="matrix(1,0,0,-1,46.2,36.855)"/>
<path style="fill:none;stroke-width:0.79701;stroke-linecap:butt;stroke-linejoin:miter;stroke:rgb(0%,0%,0%);stroke-opacity:1;stroke-miterlimit:10;" d="M 23.471875 -23.473125 L 33.495312 -33.496562 " transform="matrix(1,0,0,-1,46.2,36.855)"/>
<path style="fill:none;stroke-width:0.79701;stroke-linecap:butt;stroke-linejoin:miter;stroke:rgb(0%,0%,0%);stroke-opacity:1;stroke-miterlimit:10;" d="M 1.14375 -32.723125 L 11.167187 -42.746562 " transform="matrix(1,0,0,-1,46.2,36.855)"/>
<path style="fill:none;stroke-width:0.79701;stroke-linecap:butt;stroke-linejoin:miter;stroke:rgb(0%,0%,0%);stroke-opacity:1;stroke-miterlimit:10;" d="M -1.141406 -32.723125 L -11.164844 -42.746562 " transform="matrix(1,0,0,-1,46.2,36.855)"/>
<path style="fill:none;stroke-width:0.79701;stroke-linecap:butt;stroke-linejoin:miter;stroke:rgb(0%,0%,0%);stroke-opacity:1;stroke-miterlimit:10;" d="M -32.723438 1.144063 L -42.746875 11.163594 " transform="matrix(1,0,0,-1,46.2,36.855)"/>
<path style="fill:none;stroke-width:0.79701;stroke-linecap:butt;stroke-linejoin:miter;stroke:rgb(0%,0%,0%);stroke-opacity:1;stroke-miterlimit:10;" d="M -32.723438 -1.145 L -42.746875 -11.164531 " transform="matrix(1,0,0,-1,46.2,36.855)"/>
<path style="fill-rule:nonzero;fill:rgb(0%,0%,0%);fill-opacity:1;stroke-width:0.3985;stroke-linecap:butt;stroke-linejoin:miter;stroke:rgb(0%,0%,0%);stroke-opacity:1;stroke-miterlimit:10;" d="M 75.51875 -0.00046875 C 75.51875 0.784688 74.882031 1.4175 74.100781 1.4175 C 73.315625 1.4175 72.682812 0.784688 72.682812 -0.00046875 C 72.682812 -0.781719 73.315625 -1.418437 74.100781 -1.418437 C 74.882031 -1.418437 75.51875 -0.781719 75.51875 -0.00046875 Z M 75.51875 -0.00046875 " transform="matrix(1,0,0,-1,46.2,36.855)"/>
<path style="fill-rule:nonzero;fill:rgb(0%,0%,0%);fill-opacity:1;stroke-width:0.3985;stroke-linecap:butt;stroke-linejoin:miter;stroke:rgb(0%,0%,0%);stroke-opacity:1;stroke-miterlimit:10;" d="M 107.096875 -0.00046875 C 107.096875 0.784688 106.464062 1.4175 105.678906 1.4175 C 104.897656 1.4175 104.264844 0.784688 104.264844 -0.00046875 C 104.264844 -0.781719 104.897656 -1.418437 105.678906 -1.418437 C 106.464062 -1.418437 107.096875 -0.781719 107.096875 -0.00046875 Z M 107.096875 -0.00046875 " transform="matrix(1,0,0,-1,46.2,36.855)"/>
<path style="fill-rule:nonzero;fill:rgb(0%,0%,0%);fill-opacity:1;stroke-width:0.3985;stroke-linecap:butt;stroke-linejoin:miter;stroke:rgb(0%,0%,0%);stroke-opacity:1;stroke-miterlimit:10;" d="M 138.678906 -0.00046875 C 138.678906 0.784688 138.042188 1.4175 137.260938 1.4175 C 136.479688 1.4175 135.842969 0.784688 135.842969 -0.00046875 C 135.842969 -0.781719 136.479688 -1.418437 137.260938 -1.418437 C 138.042188 -1.418437 138.678906 -0.781719 138.678906 -0.00046875 Z M 138.678906 -0.00046875 " transform="matrix(1,0,0,-1,46.2,36.855)"/>
<path style="fill-rule:nonzero;fill:rgb(0%,0%,0%);fill-opacity:1;stroke-width:0.3985;stroke-linecap:butt;stroke-linejoin:miter;stroke:rgb(0%,0%,0%);stroke-opacity:1;stroke-miterlimit:10;" d="M 170.257031 -0.00046875 C 170.257031 0.784688 169.624219 1.4175 168.839063 1.4175 C 168.057813 1.4175 167.425 0.784688 167.425 -0.00046875 C 167.425 -0.781719 168.057813 -1.418437 168.839063 -1.418437 C 169.624219 -1.418437 170.257031 -0.781719 170.257031 -0.00046875 Z M 170.257031 -0.00046875 " transform="matrix(1,0,0,-1,46.2,36.855)"/>
<path style="fill:none;stroke-width:0.79701;stroke-linecap:butt;stroke-linejoin:miter;stroke:rgb(0%,0%,0%);stroke-opacity:1;stroke-miterlimit:10;" d="M 75.717969 -0.00046875 L 104.065625 -0.00046875 " transform="matrix(1,0,0,-1,46.2,36.855)"/>
<path style="fill:none;stroke-width:0.79701;stroke-linecap:butt;stroke-linejoin:miter;stroke:rgb(0%,0%,0%);stroke-opacity:1;stroke-miterlimit:10;" d="M 107.296094 -0.00046875 L 135.64375 -0.00046875 " transform="matrix(1,0,0,-1,46.2,36.855)"/>
<path style="fill:none;stroke-width:0.79701;stroke-linecap:butt;stroke-linejoin:miter;stroke:rgb(0%,0%,0%);stroke-opacity:1;stroke-miterlimit:10;" d="M 138.878125 -0.00046875 L 167.225781 -0.00046875 " transform="matrix(1,0,0,-1,46.2,36.855)"/>
<path style="fill-rule:nonzero;fill:rgb(0%,0%,0%);fill-opacity:1;stroke-width:0.3985;stroke-linecap:butt;stroke-linejoin:miter;stroke:rgb(0%,0%,0%);stroke-opacity:1;stroke-miterlimit:10;" d="M 230.186719 -0.00046875 C 230.186719 0.784688 229.55 1.4175 228.76875 1.4175 C 227.983594 1.4175 227.350781 0.784688 227.350781 -0.00046875 C 227.350781 -0.781719 227.983594 -1.418437 228.76875 -1.418437 C 229.55 -1.418437 230.186719 -0.781719 230.186719 -0.00046875 Z M 230.186719 -0.00046875 " transform="matrix(1,0,0,-1,46.2,36.855)"/>
</g>
</svg>
